<svg width="250" height="88" viewBox="0 0 250 88" fill="none" xmlns="http://www.w3.org/2000/svg">
<g clip-path="url(#clip0_490_14281)">
<path d="M31.2333 5.43814C30.887 5.11088 30.5204 4.80593 30.1357 4.52514C24.7346 1.26858 18.4843 -0.292631 12.19 0.0426402C5.8678 0.37264 1.2963 4.09063 0.330415 9.43663C-0.406147 13.2293 0.158606 17.1602 1.93291 20.5906C3.57931 23.8191 5.22571 27.0696 6.94894 30.2596C9.99675 35.6461 11.156 41.9006 10.2417 48.0246C9.0673 56.0821 8.04653 64.1781 7.27821 72.2851C6.72942 77.7576 8.75448 82.4986 12.6784 86.3651C13.096 86.8473 13.6051 87.2414 14.176 87.5247C14.7469 87.808 15.3683 87.9747 16.0041 88.0151C15.587 87.2011 15.2632 86.5246 14.9065 85.8701C12.0108 80.7678 10.7898 74.8819 11.4162 69.0456C12.0802 62.4456 14.237 56.2361 16.295 49.9991C19.1487 41.3311 17.7054 33.2077 13.1449 25.4967C11.7729 23.1812 10.1484 21.0196 9.10023 18.5171C6.80625 13.0556 8.50752 8.72714 13.9187 6.38964C14.8294 5.98159 15.7857 5.6843 16.767 5.50414C21.4482 4.71764 26.1953 4.89914 31.2333 5.43814Z" fill="white"/>
<path d="M42.701 59.7692C43.3925 57.1842 44.2761 54.6981 43.1949 52.1516C41.7748 48.6545 39.4295 45.6119 36.4118 43.3516C34.03 41.6026 32.2299 41.7016 29.9908 43.6596C28.7962 44.7674 27.7766 46.0507 26.9669 47.4656C24.2229 51.9041 22.4613 56.8157 20.4252 61.5787C17.813 67.7277 18.23 74.1681 18.3124 80.6086C19.5033 78.4086 20.085 75.9887 20.749 73.6127C22.3954 67.7112 23.7949 61.7271 26.462 56.1666C27.598 53.7906 28.9042 51.4972 31.1104 49.9022C33.7336 48.0212 35.9508 48.3621 37.9484 50.8867C38.7536 51.928 39.4454 53.0528 40.0119 54.2416C40.9174 56.0621 41.8065 57.9157 42.701 59.7692Z" fill="white"/>
<path d="M25.3418 14.3005C28.9145 15.791 32.2896 15.4005 35.6153 13.9265C39.1112 12.403 42.5576 10.764 46.0974 9.35052C52.1836 6.91952 57.1996 9.81251 57.9954 16.22C58.1765 17.683 59.0326 17.386 59.8119 17.32C60.679 17.2705 62.0071 17.87 62.0674 16.1925C62.1871 14.6921 62.2055 13.1854 62.1223 11.6825C61.4363 5.08251 58.2807 1.78251 51.6951 2.77251C46.4486 3.58101 41.9759 6.21001 37.5142 8.91051C33.7274 11.215 30.1164 13.965 25.3418 14.3005Z" fill="white"/>
<path d="M31.2323 5.43901C26.1943 4.88901 21.4582 4.70201 16.733 5.48851C15.7517 5.66868 14.7955 5.96597 13.8847 6.37402C8.47358 8.71152 6.75035 13.04 9.06628 18.5015C10.1145 21.004 11.7389 23.1655 13.1109 25.481C17.6715 33.181 19.1148 41.3155 16.261 49.9835C14.203 56.2205 12.0463 62.408 11.3822 69.03C10.7525 74.8651 11.9697 80.7509 14.8616 85.8545C15.2238 86.509 15.5476 87.1855 15.9592 87.9995C15.3234 87.959 14.702 87.7923 14.1311 87.5091C13.5601 87.2258 13.0511 86.8316 12.6335 86.3495C8.70956 82.4995 6.70096 77.742 7.23329 72.2695C8.01807 64.1625 9.02238 56.0665 10.1968 48.009C11.1111 41.885 9.95183 35.6304 6.90401 30.244C5.17529 27.054 3.55634 23.8035 1.88799 20.575C0.11368 17.1446 -0.451069 13.2137 0.285494 9.42101C1.25138 4.07501 5.82288 0.357015 12.145 0.0270152C18.4394 -0.308256 24.6897 1.25295 30.0908 4.50951C30.4911 4.7941 30.8724 5.10459 31.2323 5.43901Z" fill="white"/>
<path d="M42.701 59.7697C41.8065 57.9162 40.9174 56.0627 40.0119 54.2202C39.4454 53.0314 38.7536 51.9066 37.9484 50.8652C35.9508 48.3407 33.7336 47.9997 31.1104 49.8807C28.9152 51.4757 27.598 53.7692 26.462 56.1452C23.7949 61.7057 22.3954 67.6952 20.749 73.5912C20.085 75.9672 19.5033 78.3762 18.3124 80.5872C18.23 74.1467 17.813 67.7062 20.4252 61.5572C22.4613 56.7777 24.212 51.8827 26.9669 47.4442C27.7766 46.0293 28.7962 44.746 29.9908 43.6382C32.2299 41.7077 34.03 41.5812 36.4118 43.3302C39.4295 45.5905 41.7748 48.6331 43.1949 52.1302C44.2761 54.6987 43.398 57.1847 42.701 59.7697Z" fill="white"/>
<path d="M25.3418 14.3C30.1163 13.9645 33.7274 11.2145 37.5032 8.92653C41.9649 6.22603 46.4376 3.59702 51.6842 2.78852C58.2697 1.77652 61.4363 5.09303 62.1113 11.6985C62.1945 13.2014 62.1761 14.7082 62.0565 16.2085C61.9961 17.908 60.668 17.3085 59.8009 17.336C59.0216 17.3855 58.1545 17.6825 57.9844 16.236C57.1996 9.81203 52.1781 6.91904 46.0974 9.35004C42.5576 10.7635 39.1112 12.4025 35.6153 13.926C32.2896 15.3835 28.9145 15.7905 25.3418 14.3Z" fill="white"/>
<path d="M26.6287 33.8676C26.5244 33.8676 26.4805 33.9061 26.4421 34.0326L25.3445 36.9806C25.1759 37.3814 25.0721 37.8066 25.0372 38.2401C25.0372 38.6086 25.2238 38.8781 25.8604 38.8781H26.1677C26.4147 38.8781 26.4805 38.9221 26.4805 39.0431C26.4805 39.1641 26.3543 39.2521 26.1293 39.2521C25.4707 39.2521 24.5817 39.1861 23.9341 39.1861C23.7091 39.1861 22.5786 39.2521 21.5084 39.2521C21.2395 39.2521 21.1133 39.2081 21.1133 39.0431C21.1133 38.8781 21.1956 38.8781 21.3602 38.8781C21.5249 38.8781 21.8377 38.8781 22.0023 38.8396C22.9463 38.7131 23.3359 38.0146 23.7475 36.9806L28.9172 24.0281C29.1642 23.4286 29.2849 23.2031 29.4934 23.2031C29.702 23.2031 29.8008 23.3846 30.0093 23.8631C30.5032 24.9961 33.796 33.4111 35.1131 36.5461C35.8924 38.4051 36.4906 38.6911 36.9242 38.7956C37.2082 38.8503 37.4966 38.8779 37.7858 38.8781C37.9504 38.8781 38.0547 38.8781 38.0547 39.0431C38.0547 39.2081 37.8681 39.2521 37.1108 39.2521C36.3534 39.2521 34.8662 39.2521 33.2198 39.2081C32.8466 39.2081 32.5997 39.2081 32.5997 39.0431C32.5997 38.8781 32.682 38.8781 32.8905 38.8561C32.9361 38.8405 32.9778 38.815 33.0125 38.7815C33.0472 38.748 33.0742 38.7072 33.0915 38.6621C33.1087 38.617 33.1159 38.5686 33.1125 38.5204C33.109 38.4722 33.0951 38.4254 33.0716 38.3831L31.4252 33.9831C31.4137 33.9391 31.387 33.9005 31.3498 33.8743C31.3127 33.8482 31.2674 33.8361 31.2222 33.8401L26.6287 33.8676ZM30.827 32.8336C30.9258 32.8336 30.9478 32.7731 30.9258 32.7126L29.0764 27.6141C29.0764 27.5316 29.0325 27.4271 28.9721 27.4271C28.9117 27.4271 28.8678 27.5316 28.8514 27.6141L26.936 32.6906C26.936 32.7731 26.936 32.8336 27.0184 32.8336H30.827Z" fill="white"/>
<path d="M40.2128 29.6403C40.2128 26.5053 40.2128 25.9277 40.1689 25.2677C40.125 24.6077 39.9658 24.2337 39.2853 24.0907C39.0191 24.0437 38.7488 24.0234 38.4786 24.0302C38.2536 24.0302 38.1328 23.9863 38.1328 23.8433C38.1328 23.7003 38.2755 23.6562 38.5828 23.6562C39.6804 23.6562 40.9701 23.7167 41.5463 23.7167C42.1226 23.7167 43.4836 23.6562 44.7184 23.6562C47.2923 23.6562 50.7278 23.6563 52.9504 26.0103C54.2779 27.4241 54.9957 29.3054 54.948 31.2462C54.9855 33.3819 54.19 35.4479 52.7309 37.0048C51.7815 37.9728 49.6411 39.4358 45.8325 39.4358C45.0916 39.4358 44.2519 39.3753 43.4671 39.3148C42.6824 39.2543 41.9634 39.1882 41.453 39.1882C41.2226 39.1882 40.7725 39.1882 40.2786 39.1882C39.7847 39.1882 39.2688 39.2323 38.8572 39.2323C38.5883 39.2323 38.4456 39.1663 38.4456 39.0233C38.4456 38.8803 38.528 38.8583 38.7749 38.8583C39.0242 38.8596 39.2728 38.8319 39.5158 38.7757C39.9274 38.6932 40.0317 38.2257 40.114 37.6427C40.2182 36.7737 40.2183 35.1457 40.2183 33.2427L40.2128 29.6403ZM42.7811 31.9063C42.7811 34.1063 42.7811 35.6848 42.825 36.0753C42.8076 36.607 42.8837 37.1376 43.0501 37.6427C43.319 38.0332 44.1202 38.4677 45.7447 38.4677C47.8466 38.4677 49.246 38.0552 50.4808 36.9827C51.7979 35.8497 52.2095 33.9688 52.2095 31.8458C52.2459 30.8974 52.0895 29.9515 51.7499 29.0656C51.4103 28.1797 50.8945 27.3722 50.2338 26.6923C48.3405 24.8718 45.9916 24.6243 44.3891 24.6243C43.9384 24.6185 43.4886 24.6683 43.0501 24.7728C42.9664 24.8005 42.8955 24.8574 42.8502 24.9331C42.8048 25.0088 42.7881 25.0983 42.8031 25.1853C42.8031 25.8838 42.8031 27.6823 42.8031 29.3103L42.7811 31.9063Z" fill="white"/>
<path d="M57.5752 25.6792C57.1032 24.5407 56.752 24.3152 56.0111 24.1117C55.7486 24.05 55.4793 24.0223 55.2098 24.0292C55.0233 24.0292 54.9629 23.9632 54.9629 23.8422C54.9629 23.7212 55.1879 23.6552 55.5117 23.6552C56.6093 23.6552 57.7727 23.7156 58.4917 23.7156C59.0075 23.7156 59.9954 23.6552 61.0271 23.6552C61.2741 23.6552 61.4991 23.6992 61.4991 23.8422C61.4991 23.9852 61.3783 24.0292 61.1918 24.0292C60.9165 23.9991 60.6385 24.0487 60.3905 24.1722C60.3213 24.2204 60.2657 24.2857 60.2292 24.3619C60.1926 24.438 60.1764 24.5223 60.182 24.6066C60.2688 25.1532 60.4275 25.6858 60.6539 26.1906L64.1937 35.5406H64.2541C65.1431 33.2746 67.8158 26.6307 68.3097 25.2667C68.4115 25.0251 68.4745 24.7689 68.4963 24.5076C68.4999 24.4214 68.4756 24.3364 68.4272 24.2651C68.3788 24.1938 68.3087 24.14 68.2274 24.1117C67.9596 24.0371 67.682 24.0037 67.4042 24.0127C67.2176 24.0127 67.0529 24.0127 67.0529 23.8477C67.0529 23.6827 67.2395 23.6387 67.6017 23.6387C68.6335 23.6387 69.5006 23.6992 69.764 23.6992C70.1152 23.6992 71.0811 23.6387 71.7013 23.6387C71.9702 23.6387 72.1348 23.6827 72.1348 23.8257C72.1348 23.9687 72.0086 24.0127 71.8055 24.0127C71.4518 23.9925 71.1002 24.0787 70.7957 24.2602C70.5268 24.4417 70.2195 24.8102 69.6652 26.1137C68.8585 28.0552 68.3042 29.1662 67.1901 31.7072C65.873 34.7157 64.9071 36.9652 64.4461 37.9992C63.8973 39.1927 63.7876 39.5227 63.4967 39.5227C63.2058 39.5227 63.1071 39.2367 62.7174 38.2632L57.5752 25.6792Z" fill="white"/>
<path d="M74.0628 33.8676C73.964 33.8676 73.9201 33.9061 73.8762 34.0326L72.7786 36.9806C72.6099 37.3901 72.5115 37.8253 72.4877 38.2676C72.4877 38.6361 72.6688 38.9056 73.3109 38.9056H73.5853C73.8323 38.9056 73.8926 38.9496 73.8926 39.0706C73.8926 39.1916 73.7719 39.2796 73.5414 39.2796C72.8829 39.2796 71.9993 39.2136 71.3462 39.2136C71.1212 39.2136 69.9852 39.2796 68.915 39.2796C68.6516 39.2796 68.5254 39.2356 68.5254 39.0706C68.5254 38.9056 68.6077 38.9056 68.7723 38.9056C68.937 38.9056 69.2443 38.9056 69.409 38.8671C70.3584 38.7406 70.748 38.0421 71.1596 37.0081L76.3293 24.0281C76.5763 23.4286 76.697 23.2031 76.9056 23.2031C77.1141 23.2031 77.2129 23.3846 77.4159 23.8631C77.9099 24.9961 81.2026 33.4111 82.5253 36.5461C83.3046 38.4051 83.9027 38.6911 84.3363 38.7956C84.6203 38.8503 84.9088 38.8779 85.1979 38.8781C85.3626 38.8781 85.4668 38.8781 85.4668 39.0431C85.4668 39.2081 85.2802 39.2521 84.5174 39.2521C83.7546 39.2521 82.2783 39.2521 80.6264 39.2081C80.2587 39.2081 80.0118 39.2081 80.0118 39.0431C80.0118 38.8781 80.0941 38.8781 80.2971 38.8561C80.3432 38.8411 80.3855 38.8161 80.4208 38.7828C80.4561 38.7495 80.4837 38.7088 80.5015 38.6637C80.5193 38.6185 80.527 38.5699 80.5239 38.5214C80.5208 38.4729 80.5071 38.4257 80.4837 38.3831L78.8373 33.9831C78.8258 33.9391 78.7991 33.9005 78.7619 33.8743C78.7248 33.8482 78.6795 33.8361 78.6343 33.8401L74.0628 33.8676ZM78.2611 32.8336C78.3654 32.8336 78.3873 32.7731 78.3654 32.7126L76.5159 27.6141C76.5159 27.5316 76.472 27.4271 76.4116 27.4271C76.3513 27.4271 76.3074 27.5316 76.2854 27.6141L74.3921 32.6906C74.3921 32.7731 74.3921 32.8336 74.4744 32.8336H78.2611Z" fill="white"/>
<path d="M88.7941 36.4497C88.838 38.0557 89.1069 38.5947 89.5185 38.7377C89.8651 38.8434 90.2266 38.8918 90.5887 38.8807C90.8137 38.8807 90.9344 38.9247 90.9344 39.0457C90.9344 39.1667 90.7533 39.2547 90.4625 39.2547C89.1234 39.2547 88.3002 39.1887 87.9105 39.1887C87.724 39.1887 86.7581 39.2547 85.6879 39.2547C85.419 39.2547 85.2324 39.2547 85.2324 39.0457C85.2324 38.8367 85.3586 38.8807 85.5617 38.8807C85.874 38.8858 86.1858 38.8507 86.4892 38.7762C87.038 38.6112 87.1093 38.0172 87.1258 36.2187L87.3124 24.0087C87.3124 23.5962 87.3727 23.3047 87.5813 23.3047C87.7898 23.3047 87.9929 23.5742 88.3441 23.9482C88.5911 24.2122 91.7192 27.5782 94.7211 30.5482C96.1206 31.9507 98.903 34.9482 99.2542 35.2507H99.375L99.1719 25.9887C99.1719 24.7292 98.9634 24.3387 98.4695 24.1297C98.1126 24.0298 97.7419 23.989 97.3719 24.0087C97.1249 24.0087 97.0426 23.9427 97.0426 23.8217C97.0426 23.7007 97.2676 23.6347 97.5914 23.6347C98.6615 23.6347 99.6494 23.6952 100.083 23.6952C100.308 23.6952 101.093 23.6347 102.097 23.6347C102.366 23.6347 102.574 23.6347 102.574 23.8217C102.574 24.0087 102.448 24.0087 102.201 24.0087C101.995 24.0009 101.788 24.0212 101.587 24.0692C101.01 24.2342 100.846 24.6687 100.824 25.8237L100.599 38.8367C100.599 39.2932 100.516 39.4802 100.33 39.4802C100.143 39.4802 99.8579 39.2492 99.6274 39.0237C98.3322 37.7862 95.698 35.0857 93.5577 32.9737C91.3131 30.7737 89.0301 28.1722 88.6569 27.7762H88.5965L88.7941 36.4497Z" fill="white"/>
<path d="M107.235 37.2907C106.441 36.5388 105.806 35.6345 105.367 34.6315C104.928 33.6286 104.696 32.5475 104.682 31.4525C104.669 30.3575 104.875 29.2711 105.29 28.2577C105.704 27.2444 106.317 26.3248 107.093 25.5537C108.574 24.1952 110.528 23.3537 113.596 23.3537C114.595 23.3494 115.592 23.4174 116.581 23.5572C117.366 23.6617 118.025 23.8487 118.639 23.9092C118.864 23.9092 118.947 24.0302 118.947 24.1567C118.947 24.2832 118.886 24.5692 118.848 25.2897C118.81 26.0102 118.848 27.1047 118.782 27.5172C118.782 27.8307 118.722 27.9957 118.535 27.9957C118.349 27.9957 118.332 27.8307 118.332 27.5392C118.299 26.8311 118.015 26.1581 117.531 25.6417C116.85 24.9212 115.242 24.3602 113.349 24.3602C111.56 24.3602 110.385 24.8167 109.507 25.6417C108.004 27.0222 107.614 28.9857 107.614 30.9822C107.614 35.8937 111.34 38.3302 114.095 38.3302C115.928 38.3302 117.042 38.1212 117.866 37.1752C118.198 36.779 118.436 36.3127 118.563 35.8112C118.628 35.4812 118.667 35.3987 118.831 35.3987C118.996 35.3987 119.018 35.5417 119.018 35.7067C118.933 36.6332 118.781 37.5523 118.563 38.4567C118.543 38.6007 118.48 38.7352 118.382 38.8423C118.284 38.9494 118.155 39.024 118.014 39.0562C116.811 39.4078 115.561 39.5675 114.309 39.5292C111.478 39.5402 109.112 38.9242 107.235 37.2907Z" fill="white"/>
<path d="M123.391 29.6389C123.391 26.5039 123.39 25.9264 123.347 25.2664C123.303 24.6064 123.144 24.2324 122.463 24.0894C122.199 24.0425 121.93 24.0223 121.662 24.0289C121.437 24.0289 121.311 23.9849 121.311 23.8419C121.311 23.6989 121.453 23.6549 121.766 23.6549C122.315 23.6549 122.919 23.6549 123.412 23.6549C123.906 23.6549 124.422 23.6934 124.713 23.6934C125.372 23.6934 129.466 23.6934 129.855 23.6934C130.154 23.6679 130.451 23.6257 130.744 23.5669C130.851 23.5285 130.961 23.5008 131.074 23.4844C131.172 23.4844 131.194 23.5669 131.194 23.6714C131.116 24.1154 131.061 24.5634 131.03 25.0134C131.03 25.2169 130.969 26.1134 130.926 26.3719C130.926 26.4764 130.865 26.5974 130.722 26.5974C130.58 26.5974 130.536 26.4984 130.536 26.3114C130.536 26.0589 130.495 25.8081 130.415 25.5689C130.267 25.2004 130.064 24.9474 129.032 24.8264C128.686 24.7824 126.524 24.7439 126.113 24.7439C126.008 24.7439 125.97 24.8044 125.97 24.9474V30.1669C125.97 30.3154 125.97 30.3979 126.113 30.3979C126.563 30.3979 128.933 30.3979 129.405 30.3539C129.761 30.3776 130.113 30.2678 130.393 30.0459C130.536 29.8809 130.618 29.7764 130.722 29.7764C130.827 29.7764 130.865 29.8204 130.865 29.9414C130.865 30.0624 130.783 30.3979 130.7 31.4484C130.7 31.8609 130.618 32.6859 130.618 32.8289C130.618 32.9719 130.618 33.2194 130.432 33.2194C130.407 33.2231 130.382 33.221 130.358 33.2132C130.334 33.2054 130.313 33.1921 130.295 33.1744C130.278 33.1568 130.264 33.1352 130.257 33.1115C130.249 33.0878 130.247 33.0626 130.25 33.0379C130.239 32.7888 130.212 32.5408 130.168 32.2954C130.064 31.8829 129.773 31.5694 129.016 31.4869C128.621 31.4484 126.585 31.4264 126.091 31.4264C125.986 31.4264 125.97 31.5089 125.97 31.6354V33.2854C125.97 33.9839 125.97 35.8869 125.97 36.4809C126.008 37.9054 126.338 38.2134 128.439 38.2134C129.093 38.2534 129.749 38.1694 130.371 37.9659C130.92 37.7184 131.156 37.2894 131.299 36.4424C131.337 36.2169 131.381 36.1289 131.524 36.1289C131.666 36.1289 131.688 36.2994 131.688 36.5029C131.654 37.271 131.564 38.0357 131.419 38.7909C131.277 39.3409 131.09 39.3409 130.322 39.3409C128.78 39.3409 127.644 39.2969 126.76 39.2804C125.877 39.2639 125.234 39.2144 124.62 39.2144C124.395 39.2144 123.939 39.2144 123.445 39.2144C122.951 39.2144 122.436 39.2584 122.024 39.2584C121.761 39.2584 121.612 39.1924 121.612 39.0494C121.612 38.9064 121.695 38.8844 121.942 38.8844C122.191 38.8864 122.44 38.8587 122.683 38.8019C123.094 38.7194 123.198 38.2519 123.281 37.6689C123.385 36.7999 123.385 35.1719 123.385 33.2689L123.391 29.6389Z" fill="white"/>
<path d="M136.398 29.6403C136.398 26.5053 136.398 25.9277 136.354 25.2677C136.31 24.6077 136.151 24.2337 135.471 24.0907C135.206 24.0439 134.938 24.0236 134.67 24.0302C134.445 24.0302 134.318 23.9863 134.318 23.8433C134.318 23.7003 134.461 23.6562 134.774 23.6562C135.871 23.6562 137.161 23.7167 137.737 23.7167C138.314 23.7167 139.669 23.6562 140.904 23.6562C143.478 23.6562 146.913 23.6563 149.136 26.0103C150.466 27.4228 151.184 29.305 151.134 31.2462C151.164 33.3857 150.358 35.4522 148.889 37.0048C147.945 37.9728 145.805 39.4358 141.996 39.4358C141.255 39.4358 140.41 39.3753 139.625 39.3148C138.84 39.2543 138.127 39.1882 137.611 39.1882C137.386 39.1882 136.931 39.1882 136.437 39.1882C135.943 39.1882 135.427 39.2323 135.015 39.2323C134.752 39.2323 134.604 39.1663 134.604 39.0233C134.604 38.8803 134.686 38.8583 134.933 38.8583C135.182 38.8603 135.431 38.8326 135.674 38.7757C136.085 38.6932 136.19 38.2257 136.272 37.6427C136.376 36.7737 136.376 35.1457 136.376 33.2427L136.398 29.6403ZM138.972 31.9063C138.972 34.1063 138.972 35.6848 139.011 36.0753C138.993 36.607 139.069 37.1376 139.236 37.6427C139.505 38.0332 140.306 38.4677 141.936 38.4677C144.032 38.4677 145.432 38.0552 146.666 36.9827C147.901 35.9102 148.395 33.9688 148.395 31.8458C148.433 30.8973 148.277 29.951 147.937 29.0649C147.598 28.1788 147.081 27.3715 146.419 26.6923C144.526 24.8718 142.183 24.6243 140.575 24.6243C140.124 24.6185 139.674 24.6683 139.236 24.7728C139.153 24.8014 139.082 24.8585 139.037 24.9339C138.992 25.0094 138.975 25.0984 138.989 25.1853C138.989 25.8838 138.989 27.6823 138.989 29.3103L138.972 31.9063Z" fill="white"/>
<path d="M161.836 29.6403C161.836 26.5053 161.836 25.9277 161.792 25.2677C161.748 24.6077 161.589 24.2337 160.908 24.0907C160.644 24.0439 160.376 24.0236 160.107 24.0302C159.877 24.0302 159.756 23.9863 159.756 23.8433C159.756 23.7003 159.899 23.6562 160.206 23.6562C161.303 23.6562 162.599 23.7167 163.175 23.7167C163.751 23.7167 165.107 23.6562 166.341 23.6562C168.915 23.6562 172.378 23.6563 174.573 26.0103C175.903 27.4228 176.621 29.305 176.571 31.2462C176.601 33.3857 175.796 35.4522 174.326 37.0048C173.383 37.9728 171.242 39.4358 167.434 39.4358C166.693 39.4358 165.848 39.3753 165.063 39.3148C164.278 39.2543 163.565 39.1882 163.049 39.1882C162.824 39.1882 162.368 39.1882 161.874 39.1882C161.38 39.1882 160.864 39.2323 160.453 39.2323C160.184 39.2323 160.041 39.1663 160.041 39.0233C160.041 38.8803 160.124 38.8583 160.371 38.8583C160.62 38.8599 160.869 38.8322 161.111 38.7757C161.523 38.6932 161.627 38.2257 161.71 37.6427C161.814 36.7737 161.814 35.1457 161.814 33.2427L161.836 29.6403ZM164.41 31.9063C164.41 34.1063 164.41 35.6848 164.448 36.0753C164.431 36.607 164.507 37.1376 164.673 37.6427C164.942 38.0332 165.743 38.4677 167.373 38.4677C169.47 38.4677 170.869 38.0552 172.104 36.9827C173.421 35.8497 173.833 33.9688 173.833 31.8458C173.87 30.8973 173.714 29.951 173.375 29.0649C173.035 28.1788 172.519 27.3715 171.857 26.6923C169.964 24.8718 167.62 24.6243 166.012 24.6243C165.561 24.6185 165.112 24.6683 164.673 24.7728C164.59 24.8014 164.52 24.8585 164.475 24.9339C164.429 25.0094 164.412 25.0984 164.426 25.1853C164.426 25.8838 164.426 27.6823 164.426 29.3103L164.41 31.9063Z" fill="white"/>
<path d="M180.889 29.6389C180.889 26.5039 180.889 25.9264 180.85 25.2664C180.812 24.6064 180.642 24.2324 179.967 24.0894C179.7 24.0426 179.43 24.0223 179.16 24.0289C178.935 24.0289 178.809 23.9849 178.809 23.8419C178.809 23.6989 178.957 23.6549 179.264 23.6549C179.813 23.6549 180.417 23.6549 180.911 23.6549C181.404 23.6549 181.92 23.6934 182.206 23.6934C182.864 23.6934 186.958 23.6934 187.353 23.6934C187.65 23.6676 187.945 23.6254 188.237 23.5669C188.344 23.5291 188.454 23.5015 188.566 23.4844C188.671 23.4844 188.692 23.5669 188.692 23.6714C188.614 24.1154 188.559 24.5634 188.528 25.0134C188.528 25.2169 188.462 26.1134 188.424 26.3719C188.424 26.4764 188.363 26.5974 188.215 26.5974C188.067 26.5974 188.028 26.4984 188.028 26.3114C188.031 26.0588 187.99 25.8076 187.908 25.5689C187.765 25.2004 187.556 24.9474 186.53 24.8264C186.179 24.7824 184.017 24.7439 183.605 24.7439C183.501 24.7439 183.462 24.8044 183.462 24.9474V30.1669C183.462 30.3154 183.462 30.3979 183.605 30.3979C184.061 30.3979 186.426 30.3979 186.898 30.3539C187.254 30.3776 187.606 30.2678 187.886 30.0459C188.028 29.8809 188.111 29.7764 188.215 29.7764C188.319 29.7764 188.363 29.8204 188.363 29.9414C188.363 30.0624 188.281 30.3979 188.193 31.4484C188.193 31.8609 188.111 32.6859 188.111 32.8289C188.111 32.9719 188.111 33.2194 187.93 33.2194C187.749 33.2194 187.743 33.1369 187.743 33.0379C187.732 32.7888 187.704 32.5408 187.661 32.2954C187.556 31.8829 187.271 31.5694 186.508 31.4869C186.119 31.4484 184.077 31.4264 183.583 31.4264C183.484 31.4264 183.462 31.5089 183.462 31.6354V33.2854C183.462 33.9839 183.462 35.8869 183.462 36.4809C183.501 37.9054 183.83 38.2134 185.932 38.2134C186.588 38.2531 187.245 38.1692 187.869 37.9659C188.418 37.7184 188.649 37.2894 188.791 36.4424C188.835 36.2169 188.874 36.1289 189.022 36.1289C189.17 36.1289 189.186 36.2994 189.186 36.5029C189.152 37.271 189.062 38.0357 188.917 38.7909C188.775 39.3409 188.588 39.3409 187.82 39.3409C186.278 39.3409 185.147 39.2969 184.258 39.2804C183.369 39.2639 182.738 39.2144 182.118 39.2144C181.893 39.2144 181.443 39.2144 180.949 39.2144C180.455 39.2144 179.939 39.2584 179.528 39.2584C179.259 39.2584 179.116 39.1924 179.116 39.0494C179.116 38.9064 179.198 38.8844 179.445 38.8844C179.695 38.8857 179.943 38.858 180.186 38.8019C180.598 38.7194 180.702 38.2519 180.784 37.6689C180.883 36.7999 180.883 35.1719 180.883 33.2689L180.889 29.6389Z" fill="white"/>
<path d="M195.048 36.4497C195.092 38.0557 195.361 38.5947 195.772 38.7377C196.128 38.8465 196.499 38.8948 196.87 38.8807C197.095 38.8807 197.216 38.9247 197.216 39.0457C197.216 39.1667 197.035 39.2547 196.744 39.2547C195.405 39.2547 194.581 39.1887 194.192 39.1887C194.005 39.1887 193.039 39.2547 191.969 39.2547C191.7 39.2547 191.514 39.2547 191.514 39.0457C191.514 38.8367 191.64 38.8807 191.843 38.8807C192.155 38.8858 192.467 38.8507 192.77 38.7762C193.319 38.6112 193.391 38.0172 193.407 36.2187L193.594 24.0087C193.594 23.5962 193.659 23.3047 193.863 23.3047C194.066 23.3047 194.274 23.5742 194.625 23.9482C194.872 24.2122 198 27.5782 201.002 30.5482C202.407 31.9507 205.184 34.9482 205.535 35.2507H205.634L205.431 25.9887C205.431 24.7292 205.223 24.3387 204.729 24.1297C204.372 24.0298 204.001 23.989 203.631 24.0087C203.384 24.0087 203.302 23.9427 203.302 23.8217C203.302 23.7007 203.527 23.6347 203.851 23.6347C204.921 23.6347 205.909 23.6952 206.342 23.6952C206.567 23.6952 207.352 23.6347 208.356 23.6347C208.625 23.6347 208.834 23.6347 208.834 23.8217C208.834 24.0087 208.708 24.0087 208.461 24.0087C208.254 24.0009 208.047 24.0212 207.846 24.0692C207.297 24.2342 207.105 24.6687 207.083 25.8237L206.858 38.8367C206.858 39.2932 206.776 39.4802 206.589 39.4802C206.403 39.4802 206.117 39.2492 205.887 39.0237C204.592 37.7862 201.957 35.0857 199.817 32.9737C197.572 30.7737 195.289 28.1722 194.916 27.7762H194.856L195.048 36.4497Z" fill="white"/>
<path d="M216.122 24.8102L213.054 24.8927C211.863 24.9367 211.369 25.0357 211.062 25.4922C210.903 25.7099 210.785 25.9538 210.71 26.2127C210.667 26.3777 210.606 26.4602 210.485 26.4602C210.365 26.4602 210.299 26.3557 210.299 26.1302C210.299 25.8002 210.688 23.9302 210.732 23.7597C210.793 23.4902 210.853 23.3691 210.979 23.3691C211.266 23.4789 211.561 23.5618 211.863 23.6166C212.461 23.6771 213.24 23.7156 213.921 23.7156H222.071C222.546 23.7152 223.021 23.6821 223.492 23.6166C223.672 23.5695 223.856 23.5346 224.041 23.5121C224.189 23.5121 224.205 23.6332 224.205 23.9467C224.205 24.3757 224.145 25.8002 224.145 26.3392C224.145 26.5427 224.085 26.6691 223.958 26.6691C223.832 26.6691 223.755 26.5646 223.733 26.2566V26.0312C223.695 25.4812 223.141 24.9312 221.308 24.8707L218.712 24.8102V33.2691C218.712 35.1666 218.712 36.7946 218.816 37.6691C218.877 38.2191 219.003 38.6976 219.617 38.7691C219.965 38.8191 220.315 38.8467 220.666 38.8517C220.896 38.8517 220.995 38.9121 220.995 39.0166C220.995 39.1211 220.83 39.2257 220.605 39.2257C219.25 39.2257 217.949 39.1597 217.373 39.1597C216.901 39.1597 215.606 39.2257 214.783 39.2257C214.514 39.2257 214.371 39.1596 214.371 39.0166C214.371 38.8736 214.453 38.8517 214.7 38.8517C214.95 38.853 215.198 38.8253 215.441 38.7691C215.853 38.6866 215.99 38.2191 216.039 37.6361C216.138 36.7671 216.138 35.1391 216.138 33.2361L216.122 24.8102Z" fill="white"/>
<path d="M227.587 33.8676C227.483 33.8676 227.445 33.9061 227.401 34.0326L226.303 36.9806C226.131 37.3804 226.025 37.806 225.99 38.2401C225.99 38.6086 226.177 38.8781 226.814 38.8781H227.126C227.373 38.8781 227.434 38.9221 227.434 39.0431C227.434 39.1641 227.307 39.2521 227.082 39.2521C226.424 39.2521 225.54 39.1861 224.887 39.1861C224.657 39.1861 223.526 39.2521 222.456 39.2521C222.187 39.2521 222.066 39.2081 222.066 39.0431C222.066 38.8781 222.149 38.8781 222.313 38.8781C222.478 38.8781 222.785 38.8781 222.95 38.8396C223.899 38.7131 224.289 38.0146 224.701 36.9806L229.865 24.0281C230.112 23.4286 230.238 23.2031 230.441 23.2031C230.644 23.2031 230.754 23.3846 230.957 23.8631C231.451 24.9961 234.744 33.4111 236.061 36.5461C236.846 38.4051 237.438 38.6911 237.872 38.7956C238.158 38.8501 238.448 38.8777 238.739 38.8781C238.904 38.8781 239.008 38.8781 239.008 39.0431C239.008 39.2081 238.821 39.2521 238.058 39.2521C237.296 39.2521 235.814 39.2521 234.167 39.2081C233.8 39.2081 233.553 39.2081 233.553 39.0431C233.553 38.8781 233.635 38.8781 233.838 38.8561C233.884 38.8403 233.925 38.8148 233.96 38.7814C233.995 38.748 234.022 38.7074 234.04 38.6625C234.057 38.6176 234.065 38.5694 234.063 38.5212C234.06 38.473 234.047 38.4259 234.025 38.3831L232.378 33.9831C232.362 33.9467 232.335 33.9161 232.3 33.8955C232.266 33.8748 232.226 33.8651 232.186 33.8676H227.587ZM231.786 32.8336C231.89 32.8336 231.912 32.7731 231.89 32.7126L230.035 27.6141C230.035 27.5316 229.997 27.4271 229.936 27.4271C229.876 27.4271 229.832 27.5316 229.81 27.6141L227.917 32.6906C227.917 32.7731 227.917 32.8336 227.999 32.8336H231.786Z" fill="white"/>
<path d="M243.743 33.2699C243.743 35.9099 243.743 37.3344 244.171 37.7029C244.599 38.0714 245.06 38.1594 246.663 38.1594C247.76 38.1594 248.556 38.1594 249.072 37.6094C249.36 37.252 249.549 36.8253 249.621 36.3719C249.621 36.1849 249.681 36.0639 249.846 36.0639C250.01 36.0639 250.01 36.1629 250.01 36.4104C249.967 37.2089 249.864 38.0031 249.703 38.7864C249.577 39.2374 249.473 39.3364 248.402 39.3364C246.921 39.3364 245.851 39.2924 244.929 39.2759C244.007 39.2594 243.282 39.2099 242.415 39.2099C242.19 39.2099 241.735 39.2099 241.241 39.2099C240.747 39.2099 240.231 39.2539 239.819 39.2539C239.556 39.2539 239.408 39.1879 239.408 39.0449C239.408 38.9019 239.49 38.8799 239.737 38.8799C239.986 38.8819 240.235 38.8543 240.478 38.7974C240.889 38.7149 240.994 38.2474 241.076 37.6644C241.18 36.7954 241.18 35.1674 241.18 33.2644V29.6344C241.18 26.4994 241.18 25.9219 241.136 25.2619C241.092 24.6019 240.933 24.2279 240.253 24.0849C240.029 24.0381 239.801 24.0177 239.572 24.0244C239.347 24.0244 239.227 23.9804 239.227 23.8374C239.227 23.6944 239.369 23.6504 239.677 23.6504C240.642 23.6504 241.943 23.7109 242.497 23.7109C243.052 23.7109 244.495 23.6504 245.296 23.6504C245.587 23.6504 245.73 23.6944 245.73 23.8374C245.73 23.9804 245.604 24.0244 245.357 24.0244C245.088 24.0235 244.82 24.0437 244.555 24.0849C244.007 24.1894 243.836 24.5359 243.793 25.2619C243.749 25.9879 243.754 26.4994 243.754 29.6344L243.743 33.2699Z" fill="white"/>
<path d="M107.25 51.7315C107.25 48.206 109.571 43.6465 115.751 43.6465C120.877 43.6465 124.065 46.6385 124.065 51.3465C124.065 56.0545 120.772 59.8055 115.542 59.8055C109.637 59.8165 107.25 55.3835 107.25 51.7315ZM121.184 52.122C121.184 47.502 118.528 44.6365 115.147 44.6365C112.782 44.6365 110.082 45.9565 110.082 51.0935C110.082 55.3835 112.453 58.7935 116.404 58.7935C117.847 58.788 121.184 58.0675 121.184 52.122Z" fill="white"/>
<path d="M130.961 53.5485C130.961 55.5285 130.961 57.074 131.065 57.9485C131.126 58.548 131.246 58.999 131.866 59.0815C132.206 59.1309 132.549 59.1584 132.893 59.164C133.162 59.164 133.244 59.2245 133.244 59.329C133.244 59.4335 133.101 59.538 132.794 59.538C131.493 59.538 130.198 59.472 129.66 59.472C129.122 59.472 127.833 59.538 127.048 59.538C126.763 59.538 126.614 59.494 126.614 59.329C126.614 59.164 126.697 59.164 126.927 59.164C127.177 59.1653 127.425 59.1377 127.668 59.0815C128.08 58.999 128.179 58.5315 128.261 57.9485C128.365 57.0795 128.365 55.534 128.365 53.5485V49.9185C128.365 46.7835 128.365 46.206 128.327 45.546C128.288 44.886 128.118 44.512 127.438 44.369C127.173 44.3247 126.905 44.3044 126.636 44.3085C126.433 44.3085 126.285 44.2645 126.285 44.1435C126.285 44.0225 126.45 43.9345 126.763 43.9345C127.311 43.9345 127.893 43.9345 128.409 43.9345C128.925 43.9345 129.419 43.9785 129.71 43.9785C130.489 43.9785 134.649 43.9785 135.143 43.9785C135.427 43.9796 135.71 43.952 135.988 43.896C136.091 43.8376 136.202 43.7949 136.317 43.7695C136.4 43.7695 136.46 43.852 136.46 43.9565C136.46 44.061 136.356 44.347 136.295 44.886C136.295 45.0895 136.235 46.3105 136.191 46.536C136.191 46.701 136.131 46.822 135.988 46.822C135.845 46.822 135.801 46.7175 135.779 46.492C135.79 46.2263 135.749 45.961 135.659 45.711C135.506 45.4966 135.3 45.3263 135.061 45.2171C134.822 45.108 134.559 45.064 134.298 45.0895L131.131 45.029C131.005 45.029 130.944 45.0895 130.944 45.315V50.474C130.944 50.6005 130.944 50.661 131.087 50.661H133.721C134.073 50.661 134.358 50.661 134.649 50.661C134.814 50.6705 134.98 50.6422 135.133 50.5784C135.286 50.5145 135.422 50.4168 135.532 50.2925C135.637 50.166 135.675 50.0835 135.801 50.0835C135.928 50.0835 135.922 50.144 135.922 50.2705C135.922 50.397 135.823 50.9085 135.757 51.552C135.719 51.9645 135.675 52.9105 135.675 53.0535C135.675 53.1965 135.675 53.4495 135.472 53.4495C135.269 53.4495 135.307 53.301 135.307 53.158C135.296 52.9404 135.253 52.7256 135.181 52.52C135.095 52.3092 134.951 52.1275 134.765 51.996C134.579 51.8645 134.36 51.7887 134.133 51.7775C133.617 51.717 131.438 51.717 131.087 51.717C130.983 51.717 130.944 51.7555 130.944 51.8985L130.961 53.5485Z" fill="white"/>
<path d="M148.099 44.0168C148.165 43.6703 148.286 43.4668 148.451 43.4668C148.615 43.4668 148.741 43.5713 148.999 44.1048L154.619 55.7373L160.222 43.9618C160.381 43.6318 160.486 43.4668 160.672 43.4668C160.859 43.4668 160.98 43.6703 161.045 44.1048L162.917 56.8538C163.103 58.1518 163.307 58.7513 163.927 58.9383C164.346 59.0874 164.788 59.1655 165.233 59.1693C165.419 59.1693 165.562 59.1693 165.562 59.3178C165.562 59.4663 165.315 59.5433 165.013 59.5433C164.497 59.5433 161.655 59.4773 160.831 59.4168C160.36 59.3783 160.239 59.3178 160.239 59.1913C160.239 59.0648 160.316 59.0263 160.464 58.9658C160.612 58.9053 160.65 58.6523 160.568 58.0748L159.328 48.9998H159.245L154.762 58.3498C154.29 59.3178 154.213 59.5048 153.999 59.5048C153.785 59.5048 153.609 59.0923 153.28 58.4708C152.786 57.5248 151.156 54.3678 150.909 53.7903C150.728 53.3558 149.493 50.7598 148.769 49.2088H148.687L147.616 57.4203C147.579 57.7416 147.558 58.0648 147.556 58.3883C147.556 58.7843 147.825 58.9383 148.176 59.0483C148.458 59.1173 148.747 59.1524 149.038 59.1528C149.202 59.1528 149.345 59.1968 149.345 59.3013C149.345 59.4058 149.164 59.5268 148.851 59.5268C147.99 59.5268 147.062 59.4608 146.694 59.4608C146.327 59.4608 145.311 59.5268 144.653 59.5268C144.45 59.5268 144.285 59.4828 144.285 59.3013C144.285 59.1198 144.406 59.1528 144.614 59.1528C144.821 59.1564 145.027 59.1361 145.229 59.0923C145.805 58.9658 145.97 58.1628 146.074 57.4423L148.099 44.0168Z" fill="white"/>
<path d="M166.457 51.7315C166.457 48.206 168.784 43.6465 174.958 43.6465C180.084 43.6465 183.278 46.6385 183.278 51.3465C183.278 56.0545 179.985 59.8055 174.755 59.8055C168.844 59.8165 166.457 55.3835 166.457 51.7315ZM180.397 52.122C180.397 47.502 177.74 44.6365 174.36 44.6365C171.989 44.6365 169.294 45.9565 169.294 51.0935C169.294 55.3835 171.66 58.7935 175.611 58.7935C177.06 58.788 180.397 58.0675 180.397 52.122Z" fill="white"/>
<path d="M188.728 56.7274C188.766 58.3334 189.035 58.8724 189.447 59.0154C189.793 59.1235 190.155 59.1718 190.517 59.1584C190.742 59.1584 190.868 59.2024 190.868 59.3234C190.868 59.4444 190.681 59.5324 190.396 59.5324C189.057 59.5324 188.234 59.4664 187.844 59.4664C187.658 59.4664 186.692 59.5324 185.622 59.5324C185.353 59.5324 185.166 59.5324 185.166 59.3234C185.166 59.1144 185.292 59.1584 185.495 59.1584C185.808 59.166 186.12 59.1308 186.423 59.0539C186.972 58.8944 187.037 58.2949 187.059 56.4964L187.246 44.2864C187.246 43.8739 187.306 43.5879 187.515 43.5879C187.723 43.5879 187.926 43.8519 188.272 44.2259C188.519 44.4954 191.647 47.8559 194.655 50.8259C196.054 52.2284 198.831 55.2259 199.182 55.5284H199.287L199.078 46.2664C199.078 45.0069 198.875 44.6164 198.381 44.4074C198.024 44.3078 197.653 44.267 197.283 44.2864C197.037 44.2864 196.954 44.2259 196.954 44.0994C196.954 43.9729 197.179 43.9124 197.503 43.9124C198.573 43.9124 199.561 43.9784 199.989 43.9784C200.22 43.9784 200.999 43.9124 202.009 43.9124C202.278 43.9124 202.481 43.9124 202.481 44.0994C202.481 44.2864 202.36 44.2864 202.113 44.2864C201.904 44.2783 201.696 44.2986 201.493 44.3469C200.917 44.5119 200.752 44.9464 200.73 46.1014L200.499 59.1694C200.499 59.6204 200.417 59.8074 200.231 59.8074C200.044 59.8074 199.759 59.5819 199.534 59.3509C198.238 58.1134 195.604 55.4129 193.464 53.3009C191.219 51.1009 188.931 48.4939 188.563 48.0979H188.503L188.728 56.7274Z" fill="white"/>
<path d="M207.062 49.9176C207.062 46.7826 207.062 46.2051 207.024 45.5451C206.986 44.8851 206.815 44.5111 206.135 44.3681C205.87 44.3238 205.602 44.3035 205.334 44.3076C205.109 44.3076 204.982 44.2636 204.982 44.1206C204.982 43.9776 205.131 43.9336 205.438 43.9336C206.536 43.9336 207.825 43.9996 208.259 43.9996C208.956 43.9996 210.52 43.9336 211.156 43.9336C212.457 43.9336 213.835 44.0601 214.949 44.8246C215.382 45.1559 215.734 45.5827 215.976 46.072C216.219 46.5612 216.346 47.0998 216.348 47.6461C216.348 49.1751 215.706 50.5776 213.632 52.2716C215.459 54.5816 216.88 56.4131 218.093 57.6946C219.246 58.8936 220.091 59.0366 220.398 59.0971C220.59 59.1358 220.785 59.156 220.98 59.1576C221.145 59.1576 221.227 59.2181 221.227 59.3226C221.227 59.4271 221.079 59.5316 220.832 59.5316H218.878C218.125 59.6018 217.366 59.4669 216.683 59.1411C215.794 58.6626 215.036 57.6946 213.862 56.1051C213.039 54.9721 212.089 53.5696 211.82 53.2616C211.776 53.2082 211.72 53.1667 211.655 53.1408C211.591 53.1148 211.522 53.1053 211.453 53.1131L209.664 53.0746C209.559 53.0746 209.499 53.1131 209.499 53.2396V53.5256C209.499 55.4451 209.499 57.0731 209.598 57.9256C209.664 58.5251 209.784 58.9761 210.405 59.0586C210.737 59.1055 211.073 59.1331 211.409 59.1411C211.574 59.1411 211.656 59.2016 211.656 59.3061C211.656 59.4106 211.513 59.5151 211.244 59.5151C210.053 59.5151 208.528 59.4491 208.22 59.4491C207.913 59.4491 206.536 59.5151 205.712 59.5151C205.443 59.5151 205.301 59.4491 205.301 59.3061C205.301 59.1631 205.383 59.1411 205.63 59.1411C205.879 59.1424 206.128 59.1147 206.371 59.0586C206.782 58.9761 206.881 58.5086 206.964 57.9256C207.068 57.0566 207.068 55.4286 207.068 53.5256L207.062 49.9176ZM209.494 51.5676C209.494 51.7931 209.532 51.8811 209.675 51.9416C210.184 52.0845 210.71 52.1531 211.239 52.1451C211.754 52.2165 212.277 52.0909 212.704 51.7931C213.319 51.3421 213.917 50.3906 213.917 48.7021C213.917 45.7706 211.98 44.9291 210.767 44.9291C210.399 44.9097 210.03 44.9374 209.669 45.0116C209.526 45.0501 209.488 45.1326 209.488 45.2976L209.494 51.5676Z" fill="white"/>
<path d="M220.254 51.7315C220.254 48.206 222.581 43.6465 228.755 43.6465C233.881 43.6465 237.069 46.6385 237.069 51.3465C237.069 56.0545 233.776 59.8055 228.546 59.8055C222.641 59.8165 220.254 55.3835 220.254 51.7315ZM234.188 52.122C234.188 47.502 231.532 44.6365 228.151 44.6365C225.786 44.6365 223.086 45.9565 223.086 51.0935C223.086 55.3835 225.457 58.7935 229.408 58.7935C230.851 58.788 234.188 58.0675 234.188 52.122Z" fill="white"/>
<path d="M241.367 49.9185C241.367 46.7835 241.367 46.206 241.329 45.546C241.291 44.886 241.12 44.512 240.44 44.369C240.175 44.3244 239.907 44.3041 239.639 44.3085C239.414 44.3085 239.293 44.2645 239.293 44.1215C239.293 43.9785 239.436 43.9345 239.743 43.9345C240.292 43.9345 240.895 43.9345 241.389 43.9345C241.883 43.9345 242.399 43.9785 242.685 43.9785C243.343 43.9785 247.437 43.9785 247.832 43.9785C248.129 43.9528 248.424 43.9105 248.716 43.852C248.824 43.8168 248.934 43.7892 249.045 43.7695C249.149 43.7695 249.171 43.852 249.171 43.9565C249.093 44.4006 249.038 44.8486 249.007 45.2985C249.007 45.502 248.941 46.3985 248.902 46.657C248.902 46.7615 248.837 46.888 248.694 46.888C248.551 46.888 248.513 46.7835 248.513 46.5965C248.514 46.3436 248.471 46.0924 248.387 45.854C248.244 45.4855 248.035 45.238 247.009 45.1115C246.658 45.073 244.496 45.029 244.084 45.029C243.98 45.029 243.941 45.0895 243.941 45.238V50.452C243.941 50.6005 243.941 50.683 244.084 50.683C244.539 50.683 246.905 50.683 247.377 50.639C247.733 50.6638 248.085 50.5539 248.365 50.331C248.513 50.166 248.595 50.0615 248.694 50.0615C248.793 50.0615 248.837 50.1055 248.837 50.2265C248.837 50.3475 248.76 50.683 248.672 51.7335C248.672 52.146 248.595 52.971 248.595 53.114C248.595 53.257 248.595 53.51 248.409 53.51C248.383 53.5137 248.357 53.5114 248.333 53.5033C248.309 53.4952 248.287 53.4816 248.268 53.4634C248.25 53.4453 248.237 53.4231 248.229 53.3987C248.221 53.3744 248.218 53.3484 248.222 53.323C248.21 53.074 248.183 52.826 248.14 52.5805C248.035 52.168 247.75 51.86 246.987 51.772C246.597 51.7335 244.556 51.7115 244.062 51.7115C243.963 51.7115 243.941 51.794 243.941 51.9205V53.5705C243.941 54.2745 243.941 56.172 243.941 56.766C243.98 58.1905 244.309 58.4985 246.411 58.4985C247.066 58.5383 247.724 58.4543 248.348 58.251C248.897 58.0035 249.127 57.5745 249.27 56.7275C249.314 56.502 249.352 56.4195 249.501 56.4195C249.649 56.4195 249.665 56.5845 249.665 56.788C249.631 57.5562 249.541 58.3209 249.396 59.076C249.254 59.626 249.067 59.626 248.299 59.626C246.757 59.626 245.626 59.5875 244.737 59.5655C243.848 59.5435 243.217 59.4995 242.597 59.4995C242.372 59.4995 241.922 59.4995 241.428 59.4995C240.934 59.4995 240.418 59.5435 240.006 59.5435C239.737 59.5435 239.595 59.4775 239.595 59.3345C239.595 59.1915 239.677 59.1695 239.924 59.1695C240.173 59.1709 240.422 59.1432 240.665 59.087C241.077 59.0045 241.181 58.537 241.263 57.954C241.362 57.085 241.362 55.457 241.362 53.554L241.367 49.9185Z" fill="white"/>
<path d="M102.687 51.2148H47.1211V52.5898H102.687V51.2148Z" fill="white"/>
<path d="M29.6798 71.4571C29.2309 71.0305 28.8718 70.518 28.6239 69.9499C28.376 69.3819 28.2444 68.7697 28.2367 68.1498C28.229 67.5298 28.3455 66.9145 28.5792 66.3405C28.813 65.7664 29.1592 65.2452 29.5975 64.8076C30.4427 64.0321 31.5458 63.5646 33.2855 63.5646C33.8511 63.5621 34.4162 63.6026 34.9758 63.6856C35.4203 63.7406 35.7935 63.8451 36.1447 63.8836C36.2709 63.8836 36.3203 63.9496 36.3203 64.0211C36.3203 64.0926 36.2819 64.2576 36.26 64.6646C36.238 65.0716 36.2599 65.693 36.227 65.9295C36.1941 66.166 36.1886 66.1991 36.0843 66.1991C35.9801 66.1991 35.9691 66.1056 35.9691 65.9406C35.9561 65.5305 35.7941 65.1393 35.5136 64.8406C34.8403 64.3168 33.9988 64.0585 33.1483 64.1146C32.3498 64.0587 31.5615 64.3194 30.9531 64.8406C30.5663 65.2389 30.2684 65.7151 30.0791 66.2375C29.8899 66.76 29.8137 67.3168 29.8555 67.8711C29.8555 70.6541 31.9683 72.0291 33.5324 72.0291C34.5696 72.0291 35.1788 71.9136 35.6672 71.3746C35.8561 71.1516 35.9913 70.8882 36.0624 70.6045C36.1008 70.4175 36.1227 70.3736 36.216 70.3736C36.3093 70.3736 36.3203 70.4506 36.3203 70.5441C36.2735 71.0686 36.1872 71.589 36.0624 72.1006C36.0511 72.1808 36.0164 72.256 35.9627 72.3167C35.909 72.3773 35.8387 72.4207 35.7605 72.4416C35.0784 72.6414 34.369 72.7323 33.6586 72.7111C32.2235 72.7987 30.8066 72.3522 29.6798 71.4571Z" fill="white"/>
<path d="M38.9426 68.1515C38.9426 66.1495 40.2597 63.5645 43.761 63.5645C46.6642 63.5645 48.4697 65.264 48.4697 67.9645C48.4949 68.6048 48.3868 69.2433 48.1524 69.8395C47.918 70.4357 47.5624 70.9766 47.1082 71.4276C46.654 71.8786 46.1111 72.2301 45.5141 72.4595C44.9171 72.689 44.279 72.7915 43.6403 72.7605C43.0223 72.797 42.4035 72.7035 41.8237 72.4861C41.2438 72.2687 40.7158 71.9322 40.2734 71.4982C39.831 71.0642 39.4841 70.5422 39.2549 69.9658C39.0257 69.3895 38.9193 68.7715 38.9426 68.1515ZM46.8398 68.3714C46.8398 65.7534 45.3361 64.1255 43.4208 64.1255C42.0817 64.1255 40.5506 64.8734 40.5506 67.7884C40.5506 70.2194 41.8951 72.1445 44.1342 72.1445C44.9464 72.1445 46.8398 71.7484 46.8398 68.3714Z" fill="white"/>
<path d="M52.7951 63.7787C52.8335 63.5752 52.8994 63.4707 52.9927 63.4707C53.0859 63.4707 53.1573 63.5312 53.311 63.8337L56.494 70.4337L59.6661 63.7567C59.7593 63.5697 59.8197 63.4762 59.924 63.4762C60.0283 63.4762 60.0996 63.5972 60.1325 63.8392L61.1972 71.0662C61.3015 71.8032 61.4167 72.1662 61.746 72.2432C61.9792 72.3233 62.2239 72.3642 62.4704 72.3642C62.5747 72.3642 62.657 72.3642 62.657 72.4467C62.657 72.5292 62.5143 72.5732 62.3497 72.5732C62.0588 72.5732 60.4508 72.5402 59.9844 72.5017C59.7154 72.5017 59.6441 72.4467 59.6441 72.3752C59.6441 72.3037 59.6935 72.2817 59.7758 72.2432C59.8581 72.2047 59.8801 72.0727 59.8307 71.7427L59.1337 66.6002H59.0843L56.5708 71.9022C56.3019 72.4522 56.2415 72.5567 56.1373 72.5567C56.033 72.5567 55.9178 72.3202 55.7312 71.9737C55.4513 71.4237 54.5293 69.6472 54.3866 69.3172C54.2439 68.9872 53.5854 67.6012 53.1738 66.7212H53.1299L52.5207 71.3742C52.4994 71.5568 52.4884 71.7404 52.4878 71.9242C52.4878 72.1442 52.6414 72.2542 52.839 72.2982C52.9989 72.3374 53.1628 72.3577 53.3274 72.3587C53.4207 72.3587 53.503 72.3587 53.503 72.4412C53.503 72.5237 53.3988 72.5677 53.2231 72.5677C52.7347 72.5677 52.2079 72.5347 51.9993 72.5347C51.7908 72.5347 51.2145 72.5677 50.8414 72.5677C50.7261 72.5677 50.6328 72.5677 50.6328 72.4412C50.6328 72.3147 50.7042 72.3587 50.8194 72.3587C50.9376 72.361 51.0557 72.348 51.1706 72.3202C51.4944 72.2542 51.5877 71.7977 51.6481 71.3962L52.7951 63.7787Z" fill="white"/>
<path d="M66.3612 63.7787C66.3941 63.5752 66.4655 63.4707 66.5588 63.4707C66.6521 63.4707 66.7234 63.5312 66.8716 63.8337L70.0546 70.4337L73.2322 63.7567C73.3255 63.5697 73.3804 63.4762 73.4846 63.4762C73.5889 63.4762 73.6602 63.5972 73.6987 63.8392L74.7578 71.0662C74.8621 71.8032 74.9774 72.1662 75.3066 72.2432C75.5398 72.3233 75.7846 72.3642 76.0311 72.3642C76.1353 72.3642 76.2177 72.3642 76.2177 72.4467C76.2177 72.5292 76.075 72.5732 75.9158 72.5732C75.6249 72.5732 74.0115 72.5402 73.545 72.5017C73.2761 72.5017 73.2102 72.4467 73.2102 72.3752C73.2102 72.3037 73.2541 72.2817 73.3365 72.2432C73.4188 72.2047 73.4407 72.0727 73.3968 71.7427L72.6944 66.6002H72.6505L70.104 71.9077C69.8351 72.4577 69.7802 72.5622 69.676 72.5622C69.5717 72.5622 69.451 72.3257 69.2644 71.9792C68.9845 71.4292 68.0625 69.6527 67.9253 69.3227C67.7881 68.9927 67.1186 67.6067 66.7124 66.7267H66.6631L66.0594 71.3797C66.0337 71.5619 66.0209 71.7457 66.021 71.9297C66.021 72.1497 66.1746 72.2597 66.3722 72.3037C66.5321 72.3429 66.696 72.3632 66.8606 72.3642C66.9539 72.3642 67.0362 72.3642 67.0362 72.4467C67.0362 72.5292 66.932 72.5732 66.7563 72.5732C66.2679 72.5732 65.7411 72.5402 65.5325 72.5402C65.324 72.5402 64.7532 72.5732 64.38 72.5732C64.2593 72.5732 64.166 72.5732 64.166 72.4467C64.166 72.3202 64.2374 72.3642 64.3526 72.3642C64.4708 72.3665 64.5889 72.3535 64.7038 72.3257C65.0331 72.2597 65.1264 71.8032 65.1813 71.4017L66.3612 63.7787Z" fill="white"/>
<path d="M79.4867 67.1218C79.4867 65.3398 79.4867 65.0153 79.4867 64.6413C79.4867 64.2673 79.3495 64.0417 79.0916 63.9867C78.9538 63.9504 78.8115 63.9337 78.669 63.9372C78.5538 63.9372 78.4824 63.9373 78.4824 63.8218C78.4824 63.7063 78.5757 63.7282 78.7623 63.7282C79.2068 63.7282 79.9422 63.7612 80.2825 63.7612C80.6227 63.7612 81.2594 63.7282 81.7039 63.7282C81.8575 63.7282 81.9508 63.7283 81.9508 63.8218C81.9508 63.9153 81.8795 63.9372 81.7642 63.9372C81.6461 63.9374 81.5284 63.9503 81.413 63.9757C81.0947 64.0307 81.0014 64.2288 80.9795 64.6413C80.9575 65.0538 80.9795 65.3398 80.9795 67.1218V69.1788C80.9795 70.3118 80.9795 71.2357 81.0234 71.7362C81.0618 72.0497 81.1441 72.2862 81.4898 72.2862C81.6881 72.3141 81.8879 72.3306 82.088 72.3357C82.2143 72.3357 82.2746 72.3687 82.2746 72.4292C82.2746 72.4897 82.1813 72.5447 82.0551 72.5447C81.2813 72.5447 80.5459 72.5117 80.2331 72.5117C79.9203 72.5117 79.2288 72.5447 78.7623 72.5447C78.6087 72.5447 78.5318 72.5117 78.5318 72.4292C78.5318 72.3467 78.5757 72.3357 78.7184 72.3357C78.8588 72.3345 78.9987 72.3179 79.1355 72.2862C79.3715 72.2422 79.4373 72.0442 79.4758 71.7032C79.5306 71.2137 79.5306 70.2897 79.5306 69.1567L79.4867 67.1218Z" fill="white"/>
<path d="M87.7139 64.3839L85.9742 64.4335C85.2992 64.4335 85.0193 64.5105 84.8437 64.769C84.7534 64.8933 84.6864 65.0331 84.6461 65.1815C84.6187 65.275 84.5858 65.319 84.5144 65.319C84.4431 65.319 84.4102 65.264 84.4102 65.132C84.4102 65 84.6297 63.8835 84.6571 63.79C84.6846 63.6965 84.723 63.5645 84.7943 63.5645C84.9571 63.6299 85.1263 63.6779 85.2992 63.7075C85.634 63.7405 86.0785 63.7624 86.4627 63.7624H91.0836C91.3534 63.7624 91.6229 63.744 91.8903 63.7075C91.9929 63.6793 92.0974 63.6591 92.2031 63.647C92.2854 63.647 92.2964 63.7185 92.2964 63.8945C92.2964 64.0705 92.2635 64.945 92.2635 65.2475C92.2635 65.3685 92.2251 65.4345 92.1537 65.4345C92.0824 65.4345 92.0385 65.3794 92.0275 65.2034V65.077C92.0275 64.769 91.6872 64.4444 90.65 64.4169L89.1792 64.3839V69.18C89.1792 70.2525 89.1792 71.1765 89.2396 71.677C89.2725 72.007 89.3439 72.2655 89.6951 72.3095C89.8915 72.3373 90.0894 72.3538 90.2878 72.3589C90.4195 72.3589 90.4744 72.392 90.4744 72.4525C90.4744 72.513 90.3811 72.568 90.2549 72.568C89.4866 72.568 88.7512 72.535 88.4219 72.535C88.0926 72.535 87.4176 72.568 86.9511 72.568C86.8029 72.568 86.7206 72.535 86.7206 72.4525C86.7206 72.37 86.7645 72.3589 86.9072 72.3589C87.0476 72.3577 87.1875 72.3412 87.3243 72.3095C87.5603 72.2655 87.6316 72.0069 87.6645 71.6659C87.7249 71.1764 87.7249 70.2525 87.7249 69.18L87.7139 64.3839Z" fill="white"/>
<path d="M97.3901 64.3839L95.6559 64.4335C94.9754 64.4335 94.6955 64.5105 94.5199 64.769C94.4341 64.8959 94.3675 65.035 94.3223 65.1815C94.3223 65.275 94.2674 65.319 94.1961 65.319C94.1247 65.319 94.0918 65.264 94.0918 65.132C94.0918 65 94.3113 63.8835 94.3333 63.79C94.3552 63.6965 94.4046 63.5645 94.476 63.5645C94.637 63.6294 94.8044 63.6773 94.9754 63.7075C95.3156 63.7405 95.7601 63.7624 96.1443 63.7624H100.765C101.033 63.7624 101.301 63.7441 101.566 63.7075C101.671 63.6796 101.777 63.6594 101.885 63.647C101.967 63.647 101.978 63.7185 101.978 63.8945C101.978 64.0705 101.94 64.945 101.94 65.2475C101.94 65.3685 101.907 65.4345 101.835 65.4345C101.764 65.4345 101.72 65.3794 101.709 65.2034V65.077C101.682 64.769 101.369 64.4444 100.332 64.4169L98.8609 64.3839V69.18C98.8609 70.2525 98.8609 71.1765 98.9212 71.677C98.9542 72.007 99.0255 72.2655 99.3767 72.3095C99.5732 72.3376 99.7711 72.3541 99.9694 72.3589C100.096 72.3589 100.156 72.392 100.156 72.4525C100.156 72.513 100.063 72.568 99.9365 72.568C99.1627 72.568 98.4273 72.535 98.1035 72.535C97.7797 72.535 97.0992 72.568 96.6327 72.568C96.4791 72.568 96.4022 72.535 96.4022 72.4525C96.4022 72.37 96.4462 72.3589 96.5888 72.3589C96.7292 72.3574 96.869 72.3408 97.0059 72.3095C97.2419 72.2655 97.3078 72.0069 97.3462 71.6659C97.4011 71.1764 97.4011 70.2525 97.4011 69.18L97.3901 64.3839Z" fill="white"/>
<path d="M105.518 67.1223C105.518 65.3403 105.518 65.0158 105.518 64.6418C105.518 64.2678 105.402 64.0588 105.018 63.9763C104.868 63.9466 104.716 63.9337 104.563 63.9378C104.431 63.9378 104.365 63.9378 104.365 63.8333C104.365 63.7288 104.448 63.7288 104.618 63.7288H105.567H106.302C106.676 63.7288 108.997 63.7288 109.217 63.7288C109.384 63.7153 109.551 63.6933 109.716 63.6628C109.776 63.6393 109.839 63.6227 109.903 63.6133C109.963 63.6133 109.974 63.6628 109.974 63.7178C109.929 63.9689 109.898 64.2223 109.881 64.4768C109.881 64.5978 109.848 65.1093 109.82 65.2523C109.82 65.3073 109.787 65.3788 109.705 65.3788C109.623 65.3788 109.601 65.3183 109.601 65.2138C109.602 65.0713 109.578 64.9296 109.529 64.7958C109.447 64.5813 109.332 64.4438 108.75 64.3723C108.553 64.3723 107.329 64.3283 107.104 64.3283C107.043 64.3283 107.021 64.3613 107.021 64.4438V67.4193C107.021 67.5018 107.021 67.5458 107.104 67.5458C107.362 67.5458 108.701 67.5458 108.97 67.5458C109.168 67.5563 109.363 67.4937 109.518 67.3698C109.601 67.2763 109.65 67.2158 109.705 67.2158C109.76 67.2158 109.787 67.2158 109.787 67.3093C109.787 67.4028 109.743 67.5678 109.694 68.1673C109.694 68.3983 109.65 68.8658 109.65 68.9483C109.65 69.0308 109.65 69.1683 109.54 69.1683C109.526 69.1701 109.512 69.1686 109.498 69.164C109.485 69.1594 109.473 69.1517 109.463 69.1416C109.453 69.1315 109.445 69.1193 109.44 69.1058C109.436 69.0923 109.434 69.0779 109.436 69.0638C109.431 68.9236 109.416 68.784 109.392 68.6458C109.332 68.4093 109.167 68.2333 108.739 68.1893C108.514 68.1893 107.362 68.1508 107.093 68.1508C107.032 68.1508 107.021 68.2003 107.021 68.2718V69.1958C107.021 69.5918 107.021 70.6643 107.021 71.0053C107.021 71.8138 107.23 71.9898 108.421 71.9898C108.793 72.0132 109.165 71.9647 109.518 71.8468C109.82 71.7093 109.963 71.4618 110.067 70.9833C110.067 70.8513 110.111 70.8073 110.193 70.8073C110.276 70.8073 110.287 70.9008 110.287 71.0163C110.268 71.4521 110.216 71.886 110.133 72.3143C110.056 72.6168 109.947 72.6168 109.507 72.6168C108.629 72.6168 107.987 72.6168 107.488 72.5838C106.988 72.5508 106.626 72.5508 106.275 72.5508C106.149 72.5508 105.891 72.5508 105.611 72.5508C105.331 72.5508 105.062 72.5508 104.804 72.5508C104.546 72.5508 104.574 72.5178 104.574 72.4353C104.574 72.3528 104.618 72.3418 104.76 72.3418C104.901 72.3402 105.041 72.3236 105.177 72.2923C105.413 72.2483 105.468 71.9898 105.518 71.6488C105.573 71.1593 105.573 70.2353 105.573 69.1628L105.518 67.1223Z" fill="white"/>
<path d="M114.287 67.122C114.287 65.34 114.287 65.0155 114.287 64.6415C114.287 64.2675 114.172 64.0585 113.788 63.976C113.638 63.9464 113.485 63.9335 113.332 63.9375C113.201 63.9375 113.135 63.9375 113.135 63.833C113.135 63.7285 113.217 63.7285 113.387 63.7285C114.007 63.7285 114.743 63.7615 115.072 63.7615C115.401 63.7615 116.17 63.7285 116.867 63.7285C118.326 63.7285 120.275 63.7285 121.542 65.0595C122.294 65.8623 122.7 66.9291 122.673 68.0295C122.68 69.2364 122.217 70.3986 121.383 71.269C120.834 71.819 119.633 72.6495 117.476 72.6495C117.053 72.6495 116.576 72.6165 116.131 72.578C115.687 72.5395 115.281 72.512 114.99 72.512C114.858 72.512 114.606 72.512 114.326 72.512C114.046 72.512 113.777 72.512 113.519 72.512C113.365 72.512 113.288 72.479 113.288 72.3965C113.288 72.314 113.332 72.303 113.475 72.303C113.615 72.3015 113.755 72.2849 113.892 72.2535C114.128 72.2095 114.183 71.951 114.232 71.61C114.287 71.1205 114.287 70.1965 114.287 69.124V67.122ZM115.747 68.4035C115.747 69.6465 115.747 70.543 115.747 70.7685C115.737 71.0692 115.782 71.3692 115.879 71.654C116.027 71.8795 116.482 72.1215 117.404 72.1215C118.374 72.2012 119.337 71.8994 120.088 71.28C120.834 70.6365 121.07 69.575 121.07 68.3705C121.091 67.8326 121.002 67.2962 120.809 66.794C120.615 66.2918 120.321 65.8344 119.945 65.45C119.045 64.6395 117.861 64.2185 116.653 64.2785C116.398 64.2732 116.143 64.3009 115.895 64.361C115.848 64.3762 115.807 64.4078 115.781 64.4501C115.755 64.4925 115.745 64.5428 115.753 64.592C115.753 64.9935 115.753 66.011 115.753 66.9295L115.747 68.4035Z" fill="white"/>
<path d="M133.054 64.3839L131.314 64.4335C130.639 64.4335 130.359 64.5105 130.184 64.769C130.094 64.8947 130.026 65.034 129.98 65.1815C129.98 65.275 129.926 65.319 129.854 65.319C129.783 65.319 129.75 65.264 129.75 65.132C129.75 65 129.97 63.8835 129.997 63.79C130.024 63.6965 130.063 63.5645 130.134 63.5645C130.297 63.6299 130.466 63.6779 130.639 63.7075C130.974 63.7405 131.418 63.7624 131.803 63.7624H136.423C136.691 63.7627 136.959 63.7443 137.225 63.7075C137.329 63.6796 137.436 63.6594 137.543 63.647C137.625 63.647 137.636 63.7185 137.636 63.8945C137.636 64.0705 137.598 64.945 137.598 65.2475C137.598 65.3685 137.565 65.4345 137.494 65.4345C137.422 65.4345 137.378 65.3794 137.367 65.2034V65.077C137.367 64.769 137.027 64.4444 135.99 64.4169L134.519 64.3839V69.18C134.519 70.2525 134.519 71.1765 134.579 71.677C134.612 72.007 134.684 72.2655 135.035 72.3095C135.22 72.34 135.407 72.3602 135.595 72.37C135.726 72.37 135.781 72.4029 135.781 72.4634C135.781 72.5239 135.688 72.579 135.562 72.579C134.788 72.579 134.058 72.546 133.729 72.546C133.4 72.546 132.724 72.579 132.258 72.579C132.11 72.579 132.028 72.5459 132.028 72.4634C132.028 72.3809 132.071 72.37 132.214 72.37C132.355 72.3687 132.494 72.3521 132.631 72.3204C132.867 72.2764 132.939 72.018 132.971 71.677C133.032 71.1875 133.032 70.2634 133.032 69.1909L133.054 64.3839Z" fill="white"/>
<path d="M139.757 68.1515C139.757 66.1495 141.074 63.5645 144.575 63.5645C147.478 63.5645 149.289 65.264 149.289 67.9645C149.315 68.6048 149.207 69.2433 148.972 69.8395C148.738 70.4357 148.382 70.9766 147.928 71.4276C147.474 71.8787 146.931 72.2301 146.334 72.4595C145.737 72.689 145.099 72.7915 144.46 72.7605C143.842 72.7969 143.223 72.7034 142.643 72.4861C142.063 72.2688 141.534 71.9323 141.091 71.4984C140.649 71.0645 140.301 70.5426 140.071 69.9662C139.841 69.3899 139.734 68.7717 139.757 68.1515ZM147.654 68.3714C147.654 65.7534 146.15 64.1255 144.235 64.1255C142.896 64.1255 141.37 64.8734 141.37 67.7884C141.37 70.2195 142.709 72.1445 144.948 72.1445C145.766 72.1445 147.671 71.7484 147.671 68.3714H147.654Z" fill="white"/>
<path d="M158.137 67.1223C158.137 65.3403 158.137 65.0158 158.137 64.6418C158.137 64.2678 158.022 64.0588 157.637 63.9763C157.487 63.9469 157.335 63.934 157.182 63.9378C157.05 63.9378 156.984 63.9378 156.984 63.8333C156.984 63.7288 157.061 63.7288 157.237 63.7288H158.186H158.916C159.289 63.7288 161.611 63.7288 161.836 63.7288C162.003 63.7153 162.17 63.6933 162.335 63.6628C162.395 63.6393 162.458 63.6227 162.522 63.6133C162.582 63.6133 162.593 63.6628 162.593 63.7178C162.548 63.9689 162.517 64.2223 162.5 64.4768C162.5 64.5978 162.467 65.1093 162.439 65.2523C162.439 65.3073 162.407 65.3788 162.324 65.3788C162.242 65.3788 162.22 65.3183 162.22 65.2138C162.221 65.0713 162.197 64.9296 162.149 64.7958C162.066 64.5813 161.951 64.4438 161.369 64.3723C161.172 64.3723 159.942 64.3283 159.723 64.3283C159.663 64.3283 159.641 64.3613 159.641 64.4438V67.4193C159.641 67.5018 159.641 67.5458 159.723 67.5458C159.981 67.5458 161.32 67.5458 161.589 67.5458C161.787 67.5563 161.982 67.4937 162.138 67.3698C162.22 67.2763 162.264 67.2158 162.324 67.2158C162.385 67.2158 162.407 67.2158 162.407 67.3093C162.407 67.4028 162.357 67.5678 162.313 68.1673C162.313 68.3983 162.264 68.8658 162.264 68.9483C162.264 69.0308 162.264 69.1683 162.16 69.1683C162.055 69.1683 162.055 69.1243 162.055 69.0638C162.05 68.9236 162.035 68.784 162.011 68.6458C161.951 68.4093 161.786 68.2333 161.358 68.1893C161.133 68.1893 159.981 68.1508 159.712 68.1508C159.652 68.1508 159.641 68.2003 159.641 68.2718V69.1958C159.641 69.5918 159.641 70.6643 159.641 71.0053C159.641 71.8138 159.849 71.9898 161.04 71.9898C161.412 72.0128 161.784 71.9643 162.138 71.8468C162.439 71.7093 162.582 71.4618 162.686 70.9833C162.686 70.8513 162.73 70.8073 162.813 70.8073C162.895 70.8073 162.906 70.9008 162.906 71.0163C162.887 71.4521 162.836 71.886 162.752 72.3143C162.67 72.6168 162.566 72.6168 162.127 72.6168C161.249 72.6168 160.606 72.6168 160.107 72.5838C159.608 72.5508 159.245 72.5508 158.894 72.5508C158.762 72.5508 158.51 72.5508 158.23 72.5508C157.95 72.5508 157.681 72.5508 157.423 72.5508C157.165 72.5508 157.187 72.5178 157.187 72.4353C157.187 72.3528 157.237 72.3418 157.374 72.3418C157.516 72.3405 157.658 72.3239 157.797 72.2923C158.033 72.2483 158.087 71.9898 158.137 71.6488C158.192 71.1593 158.192 70.2353 158.192 69.1628L158.137 67.1223Z" fill="white"/>
<path d="M169.975 67.677C170.348 68.227 172.242 71.4225 172.533 71.7965C172.695 72.0322 172.933 72.2049 173.208 72.286C173.351 72.3325 173.501 72.3567 173.652 72.3575C173.734 72.3575 173.8 72.3575 173.8 72.451C173.8 72.5445 173.707 72.5665 173.581 72.5665H173.23C172.95 72.5665 172.028 72.5665 171.133 72.5665C170.826 72.5665 170.733 72.528 170.733 72.4455C170.733 72.363 170.793 72.341 170.897 72.319C171.001 72.297 171.001 72.2035 170.897 72.0495C170.261 70.9055 169.591 69.745 169.059 68.8705L167.33 71.6645C167.228 71.8076 167.17 71.978 167.165 72.154C167.178 72.2063 167.206 72.2536 167.246 72.2891C167.287 72.3246 167.337 72.3465 167.39 72.352C167.479 72.3707 167.569 72.38 167.659 72.3795C167.725 72.3795 167.796 72.4125 167.796 72.484C167.796 72.5555 167.714 72.5885 167.566 72.5885H167.352C167.281 72.5885 166.551 72.5555 166.254 72.5555C165.958 72.5555 165.464 72.5885 165.277 72.5885H165.08C164.959 72.5885 164.904 72.5555 164.904 72.484C164.904 72.4125 164.976 72.3795 165.069 72.3795C165.214 72.3778 165.357 72.3574 165.497 72.319C165.837 72.2255 166.046 72.0055 166.457 71.4445L168.686 68.249L166.677 64.9215C166.479 64.515 166.134 64.2 165.711 64.0415C165.551 63.9924 165.385 63.9647 165.217 63.959C165.202 63.9608 165.186 63.959 165.171 63.9538C165.156 63.9486 165.143 63.9401 165.132 63.929C165.121 63.9179 165.112 63.9045 165.107 63.8897C165.102 63.8749 165.1 63.8591 165.102 63.8435C165.102 63.772 165.184 63.75 165.338 63.75C165.618 63.75 166.562 63.783 167.11 63.783C167.27 63.783 167.923 63.75 168.356 63.75C168.521 63.75 168.592 63.75 168.592 63.8545C168.592 63.959 168.521 63.959 168.417 63.959C168.309 63.9582 168.201 63.9749 168.098 64.0085C168.058 64.0196 168.022 64.0441 167.997 64.0781C167.972 64.112 167.96 64.1534 167.961 64.1955C167.975 64.3143 168.014 64.4288 168.076 64.531C168.576 65.4715 169.103 66.324 169.558 67.116C169.898 66.6045 170.969 64.9765 171.144 64.652C171.22 64.5153 171.263 64.3628 171.27 64.2065C171.263 64.1553 171.24 64.1077 171.205 64.0703C171.17 64.0328 171.123 64.0073 171.073 63.9975C170.951 63.9667 170.825 63.9538 170.7 63.959C170.634 63.959 170.562 63.959 170.562 63.8545C170.562 63.75 170.645 63.75 170.804 63.75C171.259 63.75 171.753 63.783 171.973 63.783C172.192 63.783 172.686 63.75 173.114 63.75C173.246 63.75 173.328 63.783 173.328 63.8545C173.328 63.926 173.257 63.959 173.142 63.959C172.998 63.9648 172.856 63.9889 172.719 64.0305C172.45 64.102 172.22 64.4265 171.869 64.9435L169.975 67.677Z" fill="white"/>
<path d="M176.903 71.4571C176.454 71.0305 176.094 70.518 175.847 69.9499C175.599 69.3819 175.467 68.7697 175.459 68.1498C175.452 67.5298 175.568 66.9145 175.802 66.3405C176.036 65.7664 176.382 65.2452 176.82 64.8076C177.665 64.0321 178.768 63.5646 180.508 63.5646C181.074 63.5621 181.639 63.6026 182.198 63.6856C182.643 63.7406 183.016 63.8451 183.367 63.8836C183.494 63.8836 183.543 63.9496 183.543 64.0211C183.543 64.0926 183.505 64.2576 183.483 64.6646C183.461 65.0716 183.483 65.693 183.45 65.9295C183.417 66.166 183.411 66.1991 183.307 66.1991C183.203 66.1991 183.192 66.1056 183.192 65.9406C183.179 65.5305 183.017 65.1393 182.736 64.8406C182.063 64.3168 181.221 64.0585 180.371 64.1146C179.572 64.0587 178.784 64.3194 178.176 64.8406C177.794 65.2413 177.501 65.7185 177.317 66.2409C177.132 66.7632 177.06 67.3188 177.106 67.8711C177.106 70.6541 179.213 72.0291 180.777 72.0291C181.814 72.0291 182.423 71.9136 182.912 71.3746C183.101 71.1516 183.236 70.8882 183.307 70.6045C183.345 70.4175 183.367 70.3736 183.461 70.3736C183.554 70.3736 183.565 70.4506 183.565 70.5441C183.518 71.0686 183.432 71.589 183.307 72.1006C183.296 72.1808 183.261 72.256 183.207 72.3167C183.154 72.3773 183.083 72.4207 183.005 72.4416C182.323 72.6414 181.614 72.7323 180.903 72.7111C179.461 72.8043 178.035 72.3574 176.903 71.4571Z" fill="white"/>
<path d="M187.453 67.1223C187.453 65.3403 187.453 65.0158 187.453 64.6418C187.453 64.2678 187.338 64.0588 186.954 63.9763C186.804 63.9466 186.651 63.9337 186.498 63.9378C186.372 63.9378 186.301 63.9378 186.301 63.8333C186.301 63.7288 186.383 63.7288 186.559 63.7288H187.503H188.238C188.611 63.7288 190.933 63.7288 191.152 63.7288C191.32 63.7153 191.486 63.6933 191.652 63.6628C191.712 63.6393 191.774 63.6227 191.838 63.6133C191.899 63.6133 191.909 63.6628 191.909 63.7178C191.909 63.7728 191.855 63.9433 191.816 64.4768C191.816 64.5978 191.783 65.1093 191.761 65.2523C191.761 65.3073 191.723 65.3788 191.641 65.3788C191.558 65.3788 191.536 65.3183 191.536 65.2138C191.538 65.0713 191.514 64.9296 191.465 64.7958C191.388 64.5813 191.267 64.4438 190.686 64.3723C190.488 64.3723 189.264 64.3283 189.039 64.3283C188.984 64.3283 188.957 64.3613 188.957 64.4438V67.4193C188.957 67.5018 188.957 67.5458 189.039 67.5458C189.297 67.5458 190.636 67.5458 190.905 67.5458C191.103 67.5563 191.299 67.4937 191.454 67.3698C191.536 67.2763 191.586 67.2158 191.641 67.2158C191.695 67.2158 191.723 67.2158 191.723 67.3093C191.723 67.4028 191.679 67.5678 191.63 68.1673C191.63 68.3983 191.586 68.8658 191.586 68.9483C191.586 69.0308 191.586 69.1683 191.481 69.1683C191.377 69.1683 191.372 69.1243 191.372 69.0638C191.366 68.9236 191.352 68.784 191.328 68.6458C191.267 68.4093 191.103 68.2333 190.675 68.1893C190.455 68.1893 189.297 68.1508 189.028 68.1508C188.968 68.1508 188.957 68.2003 188.957 68.2718V69.1958C188.957 69.5918 188.957 70.6643 188.957 71.0053C188.984 71.8138 189.171 71.9898 190.356 71.9898C190.728 72.0132 191.101 71.9647 191.454 71.8468C191.756 71.7093 191.899 71.4618 192.003 70.9833C192.003 70.8513 192.047 70.8073 192.129 70.8073C192.211 70.8073 192.222 70.9008 192.222 71.0163C192.202 71.4518 192.153 71.8855 192.074 72.3143C191.992 72.6168 191.888 72.6168 191.443 72.6168C190.565 72.6168 189.923 72.6168 189.423 72.5838C188.924 72.5508 188.562 72.5508 188.211 72.5508C188.084 72.5508 187.826 72.5508 187.547 72.5508C187.267 72.5508 186.998 72.5508 186.74 72.5508C186.592 72.5508 186.509 72.5178 186.509 72.4353C186.509 72.3528 186.553 72.3418 186.696 72.3418C186.836 72.3406 186.976 72.3239 187.113 72.2923C187.349 72.2483 187.404 71.9898 187.453 71.6488C187.508 71.1593 187.508 70.2353 187.508 69.1628L187.453 67.1223Z" fill="white"/>
<path d="M197.682 69.1788C197.682 70.6748 197.682 71.4778 197.929 71.6923C198.175 71.9068 198.428 71.9453 199.339 71.9453C199.959 71.9453 200.437 71.9453 200.705 71.6208C200.866 71.4168 200.97 71.174 201.007 70.9168C201.007 70.8123 201.04 70.7408 201.134 70.7408C201.227 70.7408 201.227 70.8013 201.227 70.9443C201.201 71.3953 201.142 71.8439 201.051 72.2863C200.985 72.5448 200.925 72.5998 200.321 72.5998C199.476 72.5998 198.872 72.5998 198.346 72.5668C197.819 72.5338 197.402 72.5338 196.924 72.5338C196.798 72.5338 196.54 72.5338 196.26 72.5338C195.98 72.5338 195.711 72.5338 195.453 72.5338C195.3 72.5338 195.223 72.5008 195.223 72.4183C195.223 72.3358 195.267 72.3248 195.41 72.3248C195.55 72.3236 195.69 72.307 195.827 72.2753C196.063 72.2313 196.117 71.9728 196.167 71.6318C196.222 71.1423 196.222 70.2183 196.222 69.1458V67.0888C196.222 65.3068 196.222 64.9823 196.222 64.6083C196.222 64.2343 196.107 64.0253 195.722 63.9428C195.596 63.9136 195.467 63.9006 195.338 63.9043C195.206 63.9043 195.141 63.9043 195.141 63.7998C195.141 63.6953 195.217 63.6953 195.393 63.6953C195.942 63.6953 196.677 63.7283 196.99 63.7283C197.303 63.7283 198.126 63.6953 198.582 63.6953C198.741 63.6953 198.823 63.6953 198.823 63.7998C198.823 63.9043 198.752 63.9043 198.615 63.9043C198.462 63.9041 198.309 63.917 198.159 63.9428C197.846 63.9978 197.753 64.1958 197.725 64.6083C197.698 65.0208 197.725 65.3068 197.725 67.0888L197.682 69.1788Z" fill="white"/>
<path d="M206.14 69.1788C206.14 70.6748 206.14 71.4778 206.382 71.6923C206.623 71.9068 206.887 71.9453 207.798 71.9453C208.412 71.9453 208.868 71.9453 209.159 71.6208C209.321 71.4171 209.427 71.1744 209.466 70.9168C209.466 70.8123 209.499 70.7408 209.592 70.7408C209.685 70.7408 209.685 70.8013 209.685 70.9443C209.66 71.3953 209.601 71.8439 209.51 72.2863C209.438 72.5448 209.384 72.5998 208.774 72.5998C207.935 72.5998 207.331 72.5998 206.804 72.5668C206.277 72.5338 205.86 72.5338 205.383 72.5338C205.251 72.5338 204.993 72.5338 204.713 72.5338C204.433 72.5338 204.165 72.5338 203.912 72.5338C203.66 72.5338 203.676 72.5008 203.676 72.4183C203.676 72.3358 203.725 72.3248 203.863 72.3248C204.005 72.3236 204.147 72.307 204.285 72.2753C204.516 72.2313 204.576 71.9728 204.62 71.6318C204.68 71.1423 204.68 70.2183 204.68 69.1458V67.0888C204.68 65.3068 204.68 64.9823 204.68 64.6083C204.68 64.2343 204.565 64.0253 204.175 63.9428C204.05 63.9133 203.921 63.9003 203.791 63.9043C203.665 63.9043 203.594 63.9043 203.594 63.7998C203.594 63.6953 203.676 63.6953 203.852 63.6953C204.4 63.6953 205.136 63.7283 205.449 63.7283C205.762 63.7283 206.579 63.6953 207.035 63.6953C207.199 63.6953 207.282 63.6953 207.282 63.7998C207.282 63.9043 207.21 63.9043 207.073 63.9043C206.92 63.9037 206.768 63.9166 206.618 63.9428C206.299 63.9978 206.206 64.1958 206.184 64.6083C206.162 65.0208 206.184 65.3068 206.184 67.0888L206.14 69.1788Z" fill="white"/>
<path d="M213.137 67.1223C213.137 65.3403 213.137 65.0158 213.109 64.6418C213.082 64.2678 212.994 64.0588 212.61 63.9763C212.46 63.9466 212.307 63.9337 212.155 63.9378C212.028 63.9378 211.957 63.9378 211.957 63.8333C211.957 63.7288 212.039 63.7288 212.215 63.7288H213.159H213.894C214.267 63.7288 216.589 63.7288 216.808 63.7288C216.978 63.7156 217.146 63.6935 217.313 63.6628C217.373 63.6379 217.436 63.6213 217.5 63.6133C217.555 63.6133 217.566 63.6628 217.566 63.7178C217.566 63.7728 217.511 63.9433 217.472 64.4768C217.472 64.5978 217.44 65.1093 217.418 65.2523C217.418 65.3073 217.379 65.3788 217.302 65.3788C217.225 65.3788 217.193 65.3183 217.193 65.2138C217.194 65.0718 217.171 64.9305 217.127 64.7958C217.044 64.5813 216.924 64.4438 216.342 64.3723C216.144 64.3723 214.921 64.3283 214.696 64.3283C214.641 64.3283 214.613 64.3613 214.613 64.4438V67.4193C214.613 67.5018 214.613 67.5458 214.696 67.5458C214.953 67.5458 216.298 67.5458 216.561 67.5458C216.76 67.5563 216.955 67.4937 217.11 67.3698C217.193 67.2763 217.242 67.2158 217.302 67.2158C217.363 67.2158 217.379 67.2158 217.379 67.3093C217.379 67.4028 217.335 67.5678 217.286 68.1673C217.286 68.3983 217.242 68.8658 217.242 68.9483C217.242 69.0308 217.242 69.1683 217.138 69.1683C217.033 69.1683 217.033 69.1243 217.033 69.0638C217.033 69.0033 217.033 68.7943 216.984 68.6458C216.924 68.4093 216.764 68.2333 216.331 68.1893C216.111 68.1893 214.953 68.1508 214.685 68.1508C214.63 68.1508 214.613 68.2003 214.613 68.2718V69.1958C214.613 69.5918 214.613 70.6643 214.613 71.0053C214.641 71.8138 214.827 71.9898 216.018 71.9898C216.39 72.0135 216.763 71.9649 217.116 71.8468C217.423 71.7093 217.56 71.4618 217.665 70.9833C217.665 70.8513 217.714 70.8073 217.791 70.8073C217.868 70.8073 217.884 70.9008 217.884 71.0163C217.864 71.4518 217.814 71.8855 217.736 72.3143C217.654 72.6168 217.549 72.6168 217.105 72.6168C216.232 72.6168 215.59 72.6168 215.085 72.5838C214.58 72.5508 214.224 72.5508 213.872 72.5508C213.746 72.5508 213.488 72.5508 213.208 72.5508C212.928 72.5508 212.659 72.5508 212.402 72.5508C212.253 72.5508 212.171 72.5178 212.171 72.4353C212.171 72.3528 212.215 72.3418 212.358 72.3418C212.498 72.3406 212.638 72.3239 212.775 72.2923C213.011 72.2483 213.071 71.9898 213.115 71.6488C213.175 71.1593 213.175 70.2353 213.175 69.1628L213.137 67.1223Z" fill="white"/>
<path d="M222.561 70.9763C222.561 71.8893 222.736 72.1918 222.967 72.2743C223.164 72.336 223.37 72.3639 223.576 72.3568C223.702 72.3568 223.773 72.3568 223.773 72.4503C223.773 72.5438 223.669 72.5658 223.505 72.5658C222.747 72.5658 222.281 72.5328 222.056 72.5328C221.951 72.5328 221.403 72.5658 220.799 72.5658C220.645 72.5658 220.541 72.5658 220.541 72.4503C220.541 72.3348 220.612 72.3568 220.728 72.3568C220.912 72.3625 221.097 72.3422 221.276 72.2963C221.578 72.2028 221.622 71.8618 221.633 70.8498L221.743 63.9253C221.743 63.6943 221.776 63.5293 221.891 63.5293C222.006 63.5293 222.127 63.6833 222.325 63.8923C222.522 64.1013 224.234 65.9493 225.941 67.6433C226.731 68.4408 228.307 70.1238 228.504 70.3108H228.564L228.449 65.0583C228.449 64.3488 228.334 64.1233 228.054 64.0078C227.853 63.9494 227.643 63.9253 227.434 63.9363C227.291 63.9363 227.247 63.9033 227.247 63.8318C227.247 63.7603 227.374 63.7273 227.549 63.7273C228.158 63.7273 228.718 63.7603 228.96 63.7603C229.091 63.7603 229.508 63.7273 230.107 63.7273C230.255 63.7273 230.376 63.7273 230.376 63.8318C230.376 63.9363 230.304 63.9363 230.161 63.9363C230.043 63.9315 229.925 63.9444 229.81 63.9748C229.486 64.0683 229.393 64.3103 229.382 64.9648L229.228 72.3678C229.228 72.6208 229.185 72.7253 229.08 72.7253C228.976 72.7253 228.811 72.5988 228.685 72.4723C227.95 71.7683 226.457 70.2393 225.244 69.0348C224.031 67.8303 222.676 66.3123 222.467 66.0868H222.429L222.561 70.9763Z" fill="white"/>
<path d="M234.408 71.4571C233.957 71.0317 233.596 70.5196 233.347 69.9514C233.097 69.3832 232.965 68.7704 232.957 68.1498C232.95 67.5292 233.067 66.9134 233.302 66.3391C233.537 65.7649 233.885 65.244 234.325 64.8075C235.165 64.032 236.274 63.5645 238.008 63.5645C238.575 63.5623 239.142 63.6028 239.704 63.6856C240.143 63.7406 240.516 63.845 240.867 63.8835C240.999 63.8835 241.043 63.9495 241.043 64.021C241.043 64.0925 241.01 64.2575 240.982 64.6645C240.955 65.0715 240.982 65.693 240.949 65.9295C240.916 66.166 240.917 66.1991 240.807 66.1991C240.697 66.1991 240.691 66.1055 240.691 65.9405C240.682 65.5298 240.519 65.1376 240.236 64.8405C239.563 64.3168 238.721 64.0585 237.871 64.1145C237.072 64.0586 236.284 64.3194 235.675 64.8405C235.289 65.2389 234.991 65.7151 234.802 66.2375C234.612 66.76 234.536 67.3168 234.578 67.871C234.578 70.654 236.685 72.029 238.249 72.029C239.287 72.029 239.896 71.9135 240.384 71.3745C240.573 71.1516 240.708 70.8881 240.779 70.6045C240.818 70.4175 240.84 70.3735 240.933 70.3735C241.026 70.3735 241.037 70.4505 241.037 70.544C240.99 71.0686 240.904 71.5889 240.779 72.1005C240.768 72.1808 240.733 72.256 240.68 72.3166C240.626 72.3773 240.556 72.4207 240.477 72.4415C239.797 72.6414 239.09 72.7324 238.381 72.711C236.948 72.7989 235.532 72.3523 234.408 71.4571Z" fill="white"/>
<path d="M244.963 67.1223C244.963 65.3403 244.963 65.0158 244.963 64.6418C244.963 64.2678 244.848 64.0588 244.464 63.9763C244.314 63.9466 244.161 63.9337 244.008 63.9378C243.882 63.9378 243.811 63.9378 243.811 63.8333C243.811 63.7288 243.893 63.7288 244.068 63.7288H245.012H245.748C246.121 63.7288 248.442 63.7288 248.662 63.7288C248.831 63.7156 249 63.6935 249.167 63.6628C249.227 63.6379 249.289 63.6213 249.353 63.6133C249.408 63.6133 249.419 63.6628 249.419 63.7178C249.419 63.7728 249.364 63.9433 249.326 64.4768C249.326 64.5978 249.293 65.1093 249.271 65.2523C249.271 65.3073 249.233 65.3788 249.156 65.3788C249.079 65.3788 249.046 65.3183 249.046 65.2138C249.047 65.0718 249.025 64.9305 248.98 64.7958C248.898 64.5813 248.777 64.4438 248.195 64.3723C247.998 64.3723 246.774 64.3283 246.549 64.3283C246.494 64.3283 246.472 64.3613 246.472 64.4438V67.4193C246.472 67.5018 246.472 67.5458 246.549 67.5458C246.807 67.5458 248.152 67.5458 248.415 67.5458C248.613 67.5538 248.807 67.4915 248.964 67.3698C249.041 67.2763 249.09 67.2158 249.15 67.2158C249.211 67.2158 249.227 67.2158 249.227 67.3093C249.227 67.4028 249.183 67.5678 249.134 68.1673C249.134 68.3983 249.09 68.8658 249.09 68.9483C249.09 69.0308 249.09 69.1683 248.986 69.1683C248.881 69.1683 248.881 69.1243 248.881 69.0638C248.877 68.9233 248.86 68.7835 248.832 68.6458C248.772 68.4093 248.613 68.2333 248.179 68.1893C247.959 68.1893 246.802 68.1508 246.533 68.1508C246.478 68.1508 246.467 68.2003 246.467 68.2718V69.1958C246.467 69.5918 246.467 70.6643 246.467 71.0053C246.467 71.8138 246.675 71.9898 247.866 71.9898C248.238 72.0135 248.611 71.9649 248.964 71.8468C249.271 71.7093 249.408 71.4618 249.513 70.9833C249.513 70.8513 249.556 70.8073 249.639 70.8073C249.721 70.8073 249.732 70.9008 249.732 71.0163C249.712 71.4518 249.663 71.8855 249.584 72.3143C249.502 72.6168 249.397 72.6168 248.953 72.6168C248.08 72.6168 247.438 72.6168 246.933 72.5838C246.428 72.5508 246.072 72.5508 245.72 72.5508C245.594 72.5508 245.336 72.5508 245.056 72.5508C244.776 72.5508 244.508 72.5508 244.25 72.5508C244.101 72.5508 244.019 72.5178 244.019 72.4353C244.019 72.3528 244.063 72.3418 244.206 72.3418C244.346 72.3406 244.486 72.3239 244.623 72.2923C244.859 72.2483 244.919 71.9898 244.963 71.6488C245.023 71.1593 245.023 70.2353 245.023 69.1628L244.963 67.1223Z" fill="white"/>
</g>
<defs>
<clipPath id="clip0_490_14281">
<rect width="250" height="88" fill="white"/>
</clipPath>
</defs>
</svg>
